<!DOCTYPE svg PUBLIC "-//W3C//DTD SVG 1.1//EN" "http://www.w3.org/Graphics/SVG/1.1/DTD/svg11.dtd">
<!-- Uploaded to: SVG Repo, www.svgrepo.com, Transformed by: SVG Repo Mixer Tools -->
<svg fill="#000000" version="1.1" id="Layer_1" xmlns="http://www.w3.org/2000/svg" xmlns:xlink="http://www.w3.org/1999/xlink" width="800px" height="800px" viewBox="-25.6 -25.6 307.20 307.20" enable-background="new 0 0 256 190" xml:space="preserve" stroke="#000000">
<g id="SVGRepo_bgCarrier" stroke-width="0">
<path transform="translate(-25.6, -25.6), scale(9.6)" d="M16,29.27798209658691C18.074488084679466,28.92283385563676,19.859226156453577,27.842302906885333,21.83570947290065,27.119015421625534C24.111532159399495,26.286185691105,26.82040777246432,26.352784710670885,28.57150344697898,24.677482290473925C30.37944722653224,22.94779234060577,31.30625301006585,20.376245024234986,31.4916400769148,17.881025661504452C31.67430252758203,15.42247830167139,31.053331309251938,12.833385393389976,29.59940526783947,10.842425886637379C28.22969606474733,8.966790206617821,25.59936449756588,8.654826688505118,23.73886584124097,7.264626251513766C22.060752121315144,6.010707352496483,21.01749083622448,4.08484478880502,19.188614492870215,3.063282464208447C17.043496088728528,1.8650756245646167,14.713749484407115,0.6255351996829904,12.267605800155673,0.8570814679608763C9.75566489531542,1.094855948010819,7.10943751383345,2.2686423591980636,5.672519689253717,4.342684542514917C4.238479450293596,6.412573228770844,5.209400446918786,9.254916043073546,4.736025660947256,11.728138008941855C4.351531640775559,13.736988257444192,3.295230378972795,15.521578485580863,3.1424984769490862,17.561183334212068C2.9682073223057865,19.888693693042157,2.7419452768239814,22.343458898179197,3.784753026567037,24.43157620190619C4.8657567261305,26.596177041329895,6.763087997764169,28.42211509024816,9.012064913354262,29.314397907322753C11.209145031588529,30.18609064175986,13.670209545986475,29.676837596233327,16,29.27798209658691" fill="#7ed0ec" strokewidth="0"/>
</g>
<g id="SVGRepo_tracerCarrier" stroke-linecap="round" stroke-linejoin="round"/>
<g id="SVGRepo_iconCarrier"> <path d="M48.12,27.903C48.12,13.564,59.592,2,74.023,2c14.339,0,25.903,11.564,25.903,25.903 C99.834,42.335,88.27,53.806,74.023,53.806C59.684,53.806,48.12,42.242,48.12,27.903z M191,139h-47V97c0-20.461-17.881-37-38-37H43 C20.912,60,1.99,79.14,2,98v77c-0.026,8.533,6.001,12.989,12,13c6.014,0.011,12-4.445,12-13v-75h8v88h78v-88h8l0.081,50.37 c-0.053,8.729,5.342,12.446,10.919,12.63h60C207.363,163,207.363,139,191,139z M229.571,89.055v25.009h-61.073V52.992h45.518 l12.249-12.215h-69.982v85.502h85.502V76.875L229.571,89.055z M199.076,102.274l-22.921-22.921l8.637-8.637l14.296,14.296 l46.287-46.141L254,47.521L199.076,102.274z"/> </g>
</svg>